<svg xmlns="http://www.w3.org/2000/svg" viewBox="0 0 800 450">
  <ellipse cx="400" cy="392" rx="270" ry="20" fill="#23272f" opacity="0.10"/>
  
    <path d="M80 330 q160 -140 330 -60 q140 60 310 -30" stroke="#343a44" stroke-width="6" fill="none" stroke-dasharray="4 18" stroke-linecap="round" opacity="0.6"/>
    <circle cx="80" cy="330" r="14" fill="#f5921e"/>
    <circle cx="720" cy="240" r="14" fill="#f5921e"/>
    <circle cx="720" cy="240" r="26" fill="none" stroke="#f5921e" stroke-width="5" opacity="0.4"/>
    <g transform="translate(260 180)">
      <rect x="70" y="20" width="200" height="110" rx="10" fill="#e8e2d8" stroke="#343a44" stroke-width="6"/>
      <path d="M70 60 h-46 q-14 0 -18 14 l-10 34 q-2 12 10 12 h64 Z" fill="#f5921e"/>
      <rect x="-38" y="72" width="30" height="26" rx="5" fill="#23272f" opacity="0.85"/>
      <circle cx="20" cy="132" r="24" fill="#23272f"/><circle cx="20" cy="132" r="10" fill="#ffb45a"/>
      <circle cx="200" cy="132" r="24" fill="#23272f"/><circle cx="200" cy="132" r="10" fill="#ffb45a"/>
      <path d="M90 50 h160 M90 80 h160" stroke="#343a44" stroke-width="5" opacity="0.3"/>
    </g>
  
</svg>
